<?xml version="1.0" encoding="UTF-8" standalone="no"?>
<!DOCTYPE svg PUBLIC "-//W3C//DTD SVG 1.1//EN"
 "http://www.w3.org/Graphics/SVG/1.1/DTD/svg11.dtd">
<!-- Generated by graphviz version 2.43.0 (0)
 -->
<!-- Title: rethreadme::Thread&lt; Function, Args &gt; Pages: 1 -->
<svg width="1241pt" height="269pt"
 viewBox="0.00 0.00 1241.00 269.00" xmlns="http://www.w3.org/2000/svg" xmlns:xlink="http://www.w3.org/1999/xlink">
<g id="graph0" class="graph" transform="scale(1 1) rotate(0) translate(4 265)">
<title>rethreadme::Thread&lt; Function, Args &gt;</title>
<!-- Node1 -->
<g id="node1" class="node">
<title>Node1</title>
<g id="a_node1"><a xlink:title=" ">
<polygon fill="#999999" stroke="#666666" points="601.5,-173 482.5,-173 482.5,0 601.5,0 601.5,-173"/>
<text text-anchor="start" x="490.5" y="-161" font-family="Helvetica,sans-Serif" font-size="10.00">{rethreadme::Thread</text>
<text text-anchor="middle" x="542" y="-150" font-family="Helvetica,sans-Serif" font-size="10.00">&lt; Function, Args &gt;</text>
<text text-anchor="start" x="490.5" y="-139" font-family="Helvetica,sans-Serif" font-size="10.00">||+ Thread()</text>
<text text-anchor="start" x="490.5" y="-128" font-family="Helvetica,sans-Serif" font-size="10.00">+ Thread()</text>
<text text-anchor="start" x="490.5" y="-117" font-family="Helvetica,sans-Serif" font-size="10.00">+ ~Thread()</text>
<text text-anchor="start" x="490.5" y="-106" font-family="Helvetica,sans-Serif" font-size="10.00">+ empty()</text>
<text text-anchor="start" x="490.5" y="-95" font-family="Helvetica,sans-Serif" font-size="10.00">+ operator bool()</text>
<text text-anchor="start" x="490.5" y="-84" font-family="Helvetica,sans-Serif" font-size="10.00">+ queue()</text>
<text text-anchor="start" x="490.5" y="-73" font-family="Helvetica,sans-Serif" font-size="10.00">+ runLast()</text>
<text text-anchor="start" x="490.5" y="-62" font-family="Helvetica,sans-Serif" font-size="10.00">&#45; loop()</text>
<text text-anchor="start" x="490.5" y="-51" font-family="Helvetica,sans-Serif" font-size="10.00">&#45; queue()</text>
<text text-anchor="start" x="490.5" y="-40" font-family="Helvetica,sans-Serif" font-size="10.00">&#45; callerWithArgs()</text>
<text text-anchor="start" x="490.5" y="-29" font-family="Helvetica,sans-Serif" font-size="10.00">&#45; callerNoArgs()</text>
<text text-anchor="start" x="490.5" y="-18" font-family="Helvetica,sans-Serif" font-size="10.00">&#45; loopImpl()</text>
<text text-anchor="middle" x="542" y="-7" font-family="Helvetica,sans-Serif" font-size="10.00">}</text>
</a>
</g>
</g>
<!-- Node2 -->
<g id="node2" class="node">
<title>Node2</title>
<g id="a_node2"><a xlink:title=" ">
<polygon fill="white" stroke="#666666" points="54,-255.5 0,-255.5 0,-225.5 54,-225.5 54,-255.5"/>
<text text-anchor="middle" x="27" y="-243.5" font-family="Helvetica,sans-Serif" font-size="10.00">{mutex</text>
<text text-anchor="middle" x="27" y="-232.5" font-family="Helvetica,sans-Serif" font-size="10.00">||}</text>
</a>
</g>
</g>
<!-- Node2&#45;&gt;Node1 -->
<g id="edge1" class="edge">
<title>Node2&#45;&gt;Node1</title>
<path fill="none" stroke="#404040" d="M48.63,-225.44C65.98,-214.71 91.26,-200.23 115,-191 235.74,-144.06 384.21,-113.85 470.47,-98.83"/>
<polygon fill="none" stroke="#404040" points="470.65,-98.8 475.89,-93.84 482.48,-96.77 477.24,-101.73 470.65,-98.8"/>
<text text-anchor="middle" x="136" y="-194" font-family="Helvetica,sans-Serif" font-size="10.00"> &#45;m_mtx</text>
</g>
<!-- Node3 -->
<g id="node3" class="node">
<title>Node3</title>
<g id="a_node3"><a xlink:title=" ">
<polygon fill="white" stroke="#666666" points="197.5,-255.5 72.5,-255.5 72.5,-225.5 197.5,-225.5 197.5,-255.5"/>
<text text-anchor="middle" x="135" y="-243.5" font-family="Helvetica,sans-Serif" font-size="10.00">{counting_semaphore</text>
<text text-anchor="middle" x="135" y="-232.5" font-family="Helvetica,sans-Serif" font-size="10.00">||}</text>
</a>
</g>
</g>
<!-- Node3&#45;&gt;Node1 -->
<g id="edge2" class="edge">
<title>Node3&#45;&gt;Node1</title>
<path fill="none" stroke="#404040" d="M142.83,-225.14C149.49,-214.24 160.02,-199.69 173,-191 264.32,-129.88 391.4,-104.54 470.09,-94.26"/>
<polygon fill="none" stroke="#404040" points="470.38,-94.22 475.84,-89.51 482.29,-92.73 476.83,-97.45 470.38,-94.22"/>
<text text-anchor="middle" x="234.5" y="-194" font-family="Helvetica,sans-Serif" font-size="10.00"> &#45;m_functionsSemaphore</text>
</g>
<!-- Node4 -->
<g id="node4" class="node">
<title>Node4</title>
<g id="a_node4"><a xlink:title=" ">
<polygon fill="white" stroke="#666666" points="337.5,-255.5 224.5,-255.5 224.5,-225.5 337.5,-225.5 337.5,-255.5"/>
<text text-anchor="middle" x="281" y="-243.5" font-family="Helvetica,sans-Serif" font-size="10.00">{binary_semaphore</text>
<text text-anchor="middle" x="281" y="-232.5" font-family="Helvetica,sans-Serif" font-size="10.00">||}</text>
</a>
</g>
</g>
<!-- Node4&#45;&gt;Node1 -->
<g id="edge3" class="edge">
<title>Node4&#45;&gt;Node1</title>
<path fill="none" stroke="#404040" d="M286.73,-225.16C291.58,-214.55 299.43,-200.38 310,-191 356.19,-150.01 421.26,-122.9 470.74,-106.74"/>
<polygon fill="none" stroke="#404040" points="470.88,-106.7 475.39,-101.07 482.32,-103.07 477.81,-108.69 470.88,-106.7"/>
<text text-anchor="middle" x="363" y="-194" font-family="Helvetica,sans-Serif" font-size="10.00"> &#45;m_deinitSemaphore</text>
</g>
<!-- Node5 -->
<g id="node5" class="node">
<title>Node5</title>
<g id="a_node5"><a xlink:title=" ">
<polygon fill="white" stroke="#666666" points="440.5,-255.5 371.5,-255.5 371.5,-225.5 440.5,-225.5 440.5,-255.5"/>
<text text-anchor="middle" x="406" y="-243.5" font-family="Helvetica,sans-Serif" font-size="10.00">{once_flag</text>
<text text-anchor="middle" x="406" y="-232.5" font-family="Helvetica,sans-Serif" font-size="10.00">||}</text>
</a>
</g>
</g>
<!-- Node5&#45;&gt;Node1 -->
<g id="edge4" class="edge">
<title>Node5&#45;&gt;Node1</title>
<path fill="none" stroke="#404040" d="M409.92,-225.49C413.18,-215.32 418.52,-201.55 426,-191 439.1,-172.52 456.09,-155.02 473,-139.86"/>
<polygon fill="none" stroke="#404040" points="473.32,-139.58 475.21,-132.62 482.36,-131.69 480.47,-138.65 473.32,-139.58"/>
<text text-anchor="middle" x="461.5" y="-194" font-family="Helvetica,sans-Serif" font-size="10.00"> &#45;m_deinitFlag</text>
</g>
<!-- Node6 -->
<g id="node6" class="node">
<title>Node6</title>
<g id="a_node6"><a xlink:title=" ">
<polygon fill="white" stroke="#666666" points="513,-255.5 459,-255.5 459,-225.5 513,-225.5 513,-255.5"/>
<text text-anchor="middle" x="486" y="-243.5" font-family="Helvetica,sans-Serif" font-size="10.00">{thread</text>
<text text-anchor="middle" x="486" y="-232.5" font-family="Helvetica,sans-Serif" font-size="10.00">||}</text>
</a>
</g>
</g>
<!-- Node6&#45;&gt;Node1 -->
<g id="edge5" class="edge">
<title>Node6&#45;&gt;Node1</title>
<path fill="none" stroke="#404040" d="M491.17,-225.47C494.91,-215.32 500.33,-200.61 506.25,-184.53"/>
<polygon fill="none" stroke="#404040" points="506.27,-184.48 504.59,-177.46 510.42,-173.22 512.1,-180.23 506.27,-184.48"/>
<text text-anchor="middle" x="529" y="-194" font-family="Helvetica,sans-Serif" font-size="10.00"> &#45;m_thread</text>
</g>
<!-- Node7 -->
<g id="node7" class="node">
<title>Node7</title>
<g id="a_node7"><a xlink:title=" ">
<polygon fill="white" stroke="#666666" points="631,-255.5 531,-255.5 531,-225.5 631,-225.5 631,-255.5"/>
<text text-anchor="middle" x="581" y="-243.5" font-family="Helvetica,sans-Serif" font-size="10.00">{atomic&lt; bool &gt;</text>
<text text-anchor="middle" x="581" y="-232.5" font-family="Helvetica,sans-Serif" font-size="10.00">||}</text>
</a>
</g>
</g>
<!-- Node7&#45;&gt;Node1 -->
<g id="edge6" class="edge">
<title>Node7&#45;&gt;Node1</title>
<path fill="none" stroke="#404040" d="M577.4,-225.47C574.82,-215.42 571.09,-200.89 567.01,-184.99"/>
<polygon fill="none" stroke="#404040" points="566.98,-184.84 561.61,-180.02 563.99,-173.22 569.36,-178.04 566.98,-184.84"/>
<text text-anchor="middle" x="599.5" y="-194" font-family="Helvetica,sans-Serif" font-size="10.00"> &#45;m_running</text>
</g>
<!-- Node8 -->
<g id="node8" class="node">
<title>Node8</title>
<g id="a_node8"><a xlink:title=" ">
<polygon fill="white" stroke="#666666" points="765,-255.5 649,-255.5 649,-225.5 765,-225.5 765,-255.5"/>
<text text-anchor="middle" x="707" y="-243.5" font-family="Helvetica,sans-Serif" font-size="10.00">{queue&lt; Function &gt;</text>
<text text-anchor="middle" x="707" y="-232.5" font-family="Helvetica,sans-Serif" font-size="10.00">||}</text>
</a>
</g>
</g>
<!-- Node8&#45;&gt;Node1 -->
<g id="edge7" class="edge">
<title>Node8&#45;&gt;Node1</title>
<path fill="none" stroke="#404040" d="M691.77,-225.47C673.26,-208.42 640.78,-178.49 610.78,-150.86"/>
<polygon fill="none" stroke="#404040" points="610.39,-150.51 603.27,-149.38 601.57,-142.38 608.69,-143.5 610.39,-150.51"/>
<text text-anchor="middle" x="695.5" y="-194" font-family="Helvetica,sans-Serif" font-size="10.00"> &#45;m_functions</text>
</g>
<!-- Node9 -->
<g id="node9" class="node">
<title>Node9</title>
<g id="a_node9"><a xlink:title=" ">
<polygon fill="white" stroke="#666666" points="901,-261 783,-261 783,-220 901,-220 901,-261"/>
<text text-anchor="start" x="791" y="-249" font-family="Helvetica,sans-Serif" font-size="10.00">{queue&lt; std::tuple&lt;</text>
<text text-anchor="middle" x="842" y="-238" font-family="Helvetica,sans-Serif" font-size="10.00"> Args... &gt; &gt;</text>
<text text-anchor="middle" x="842" y="-227" font-family="Helvetica,sans-Serif" font-size="10.00">||}</text>
</a>
</g>
</g>
<!-- Node9&#45;&gt;Node1 -->
<g id="edge8" class="edge">
<title>Node9&#45;&gt;Node1</title>
<path fill="none" stroke="#404040" d="M803.39,-219.94C755.27,-195.56 672.11,-153.42 612.51,-123.22"/>
<polygon fill="none" stroke="#404040" points="612.37,-123.15 605.21,-124.01 601.66,-117.73 608.82,-116.87 612.37,-123.15"/>
<text text-anchor="middle" x="791" y="-194" font-family="Helvetica,sans-Serif" font-size="10.00"> &#45;m_argsRef</text>
</g>
<!-- Node10 -->
<g id="node10" class="node">
<title>Node10</title>
<g id="a_node10"><a xlink:title=" ">
<polygon fill="white" stroke="#666666" points="1047,-261 919,-261 919,-220 1047,-220 1047,-261"/>
<text text-anchor="start" x="927" y="-249" font-family="Helvetica,sans-Serif" font-size="10.00">{optional&lt; std::unique</text>
<text text-anchor="middle" x="983" y="-238" font-family="Helvetica,sans-Serif" font-size="10.00">_ptr&lt; Function &gt; &gt;</text>
<text text-anchor="middle" x="983" y="-227" font-family="Helvetica,sans-Serif" font-size="10.00">||}</text>
</a>
</g>
</g>
<!-- Node10&#45;&gt;Node1 -->
<g id="edge9" class="edge">
<title>Node10&#45;&gt;Node1</title>
<path fill="none" stroke="#404040" d="M926.25,-219.94C846.21,-192.35 700.23,-142.04 613.07,-112"/>
<polygon fill="none" stroke="#404040" points="613.05,-111.99 606.07,-113.81 601.7,-108.08 608.68,-106.25 613.05,-111.99"/>
<text text-anchor="middle" x="905" y="-194" font-family="Helvetica,sans-Serif" font-size="10.00"> &#45;m_lastFunction</text>
</g>
<!-- Node11 -->
<g id="node11" class="node">
<title>Node11</title>
<g id="a_node11"><a xlink:title=" ">
<polygon fill="white" stroke="#666666" points="1233,-261 1065,-261 1065,-220 1233,-220 1233,-261"/>
<text text-anchor="start" x="1073" y="-249" font-family="Helvetica,sans-Serif" font-size="10.00">{optional&lt; std::unique</text>
<text text-anchor="middle" x="1149" y="-238" font-family="Helvetica,sans-Serif" font-size="10.00">_ptr&lt; std::tuple&lt; Args... &gt; &gt; &gt;</text>
<text text-anchor="middle" x="1149" y="-227" font-family="Helvetica,sans-Serif" font-size="10.00">||}</text>
</a>
</g>
</g>
<!-- Node11&#45;&gt;Node1 -->
<g id="edge10" class="edge">
<title>Node11&#45;&gt;Node1</title>
<path fill="none" stroke="#404040" d="M1070.89,-219.94C952.13,-190.2 727.91,-134.05 613.33,-105.36"/>
<polygon fill="none" stroke="#404040" points="613.23,-105.34 606.43,-107.76 601.58,-102.42 608.38,-100 613.23,-105.34"/>
<text text-anchor="middle" x="1037.5" y="-194" font-family="Helvetica,sans-Serif" font-size="10.00"> &#45;m_lastFunctionArgs</text>
</g>
</g>
</svg>
