<?xml version="1.0" encoding="UTF-8" standalone="no"?>
<!DOCTYPE svg PUBLIC "-//W3C//DTD SVG 1.1//EN"
 "http://www.w3.org/Graphics/SVG/1.1/DTD/svg11.dtd">
<!-- Generated by graphviz version 2.43.0 (0)
 -->
<!-- Title: rethreadme::Thread&lt; Function, Args &gt;::Parameters Pages: 1 -->
<svg width="1216pt" height="159pt"
 viewBox="0.00 0.00 1216.00 159.00" xmlns="http://www.w3.org/2000/svg" xmlns:xlink="http://www.w3.org/1999/xlink">
<g id="graph0" class="graph" transform="scale(1 1) rotate(0) translate(4 155)">
<title>rethreadme::Thread&lt; Function, Args &gt;::Parameters</title>
<!-- Node1 -->
<g id="node1" class="node">
<title>Node1</title>
<g id="a_node1"><a xlink:title=" ">
<polygon fill="#999999" stroke="#666666" points="574.5,-52 455.5,-52 455.5,0 574.5,0 574.5,-52"/>
<text text-anchor="start" x="463.5" y="-40" font-family="Helvetica,sans-Serif" font-size="10.00">{rethreadme::Thread</text>
<text text-anchor="start" x="463.5" y="-29" font-family="Helvetica,sans-Serif" font-size="10.00">&lt; Function, Args &gt;::</text>
<text text-anchor="middle" x="515" y="-18" font-family="Helvetica,sans-Serif" font-size="10.00">Parameters</text>
<text text-anchor="middle" x="515" y="-7" font-family="Helvetica,sans-Serif" font-size="10.00">||}</text>
</a>
</g>
</g>
<!-- Node2 -->
<g id="node2" class="node">
<title>Node2</title>
<g id="a_node2"><a xlink:title=" ">
<polygon fill="white" stroke="#666666" points="54,-145.5 0,-145.5 0,-115.5 54,-115.5 54,-145.5"/>
<text text-anchor="middle" x="27" y="-133.5" font-family="Helvetica,sans-Serif" font-size="10.00">{mutex</text>
<text text-anchor="middle" x="27" y="-122.5" font-family="Helvetica,sans-Serif" font-size="10.00">||}</text>
</a>
</g>
</g>
<!-- Node2&#45;&gt;Node1 -->
<g id="edge1" class="edge">
<title>Node2&#45;&gt;Node1</title>
<path fill="none" stroke="#404040" d="M41.91,-115.47C57.89,-101.35 84.67,-80.24 112,-70 170.9,-47.93 344.1,-35.71 443.22,-30.35"/>
<polygon fill="none" stroke="#404040" points="443.23,-30.35 449.01,-26.04 455.22,-29.72 449.44,-34.03 443.23,-30.35"/>
<text text-anchor="middle" x="127.5" y="-78.5" font-family="Helvetica,sans-Serif" font-size="10.00"> +mtx</text>
</g>
<!-- Node3 -->
<g id="node3" class="node">
<title>Node3</title>
<g id="a_node3"><a xlink:title=" ">
<polygon fill="white" stroke="#666666" points="197.5,-145.5 72.5,-145.5 72.5,-115.5 197.5,-115.5 197.5,-145.5"/>
<text text-anchor="middle" x="135" y="-133.5" font-family="Helvetica,sans-Serif" font-size="10.00">{counting_semaphore</text>
<text text-anchor="middle" x="135" y="-122.5" font-family="Helvetica,sans-Serif" font-size="10.00">||}</text>
</a>
</g>
</g>
<!-- Node3&#45;&gt;Node1 -->
<g id="edge2" class="edge">
<title>Node3&#45;&gt;Node1</title>
<path fill="none" stroke="#404040" d="M138.03,-115.43C141.83,-101.49 149.77,-80.72 165,-70 208.46,-39.43 353.9,-30.55 443.05,-28"/>
<polygon fill="none" stroke="#404040" points="443.24,-27.99 449.13,-23.83 455.23,-27.68 449.34,-31.83 443.24,-27.99"/>
<text text-anchor="middle" x="221" y="-78.5" font-family="Helvetica,sans-Serif" font-size="10.00"> +functionsSemaphore</text>
</g>
<!-- Node4 -->
<g id="node4" class="node">
<title>Node4</title>
<g id="a_node4"><a xlink:title=" ">
<polygon fill="white" stroke="#666666" points="328.5,-145.5 215.5,-145.5 215.5,-115.5 328.5,-115.5 328.5,-145.5"/>
<text text-anchor="middle" x="272" y="-133.5" font-family="Helvetica,sans-Serif" font-size="10.00">{binary_semaphore</text>
<text text-anchor="middle" x="272" y="-122.5" font-family="Helvetica,sans-Serif" font-size="10.00">||}</text>
</a>
</g>
</g>
<!-- Node4&#45;&gt;Node1 -->
<g id="edge3" class="edge">
<title>Node4&#45;&gt;Node1</title>
<path fill="none" stroke="#404040" d="M273.55,-115.48C275.83,-101.78 281.42,-81.38 295,-70 317.19,-51.41 387.87,-39.91 443.2,-33.53"/>
<polygon fill="none" stroke="#404040" points="443.53,-33.49 449.05,-28.85 455.46,-32.17 449.94,-36.81 443.53,-33.49"/>
<text text-anchor="middle" x="342.5" y="-78.5" font-family="Helvetica,sans-Serif" font-size="10.00"> +deinitSemaphore</text>
</g>
<!-- Node5 -->
<g id="node5" class="node">
<title>Node5</title>
<g id="a_node5"><a xlink:title=" ">
<polygon fill="white" stroke="#666666" points="415.5,-145.5 346.5,-145.5 346.5,-115.5 415.5,-115.5 415.5,-145.5"/>
<text text-anchor="middle" x="381" y="-133.5" font-family="Helvetica,sans-Serif" font-size="10.00">{once_flag</text>
<text text-anchor="middle" x="381" y="-122.5" font-family="Helvetica,sans-Serif" font-size="10.00">||}</text>
</a>
</g>
</g>
<!-- Node5&#45;&gt;Node1 -->
<g id="edge4" class="edge">
<title>Node5&#45;&gt;Node1</title>
<path fill="none" stroke="#404040" d="M384.67,-115.48C388.81,-102.17 396.75,-82.42 410,-70 419.74,-60.87 431.68,-53.56 443.97,-47.75"/>
<polygon fill="none" stroke="#404040" points="444.3,-47.61 448.21,-41.55 455.31,-42.83 451.4,-48.89 444.3,-47.61"/>
<text text-anchor="middle" x="440.5" y="-78.5" font-family="Helvetica,sans-Serif" font-size="10.00"> +deinitFlag</text>
</g>
<!-- Node6 -->
<g id="node6" class="node">
<title>Node6</title>
<g id="a_node6"><a xlink:title=" ">
<polygon fill="white" stroke="#666666" points="488,-145.5 434,-145.5 434,-115.5 488,-115.5 488,-145.5"/>
<text text-anchor="middle" x="461" y="-133.5" font-family="Helvetica,sans-Serif" font-size="10.00">{thread</text>
<text text-anchor="middle" x="461" y="-122.5" font-family="Helvetica,sans-Serif" font-size="10.00">||}</text>
</a>
</g>
</g>
<!-- Node6&#45;&gt;Node1 -->
<g id="edge5" class="edge">
<title>Node6&#45;&gt;Node1</title>
<path fill="none" stroke="#404040" d="M466.02,-115.44C470.61,-103.15 477.9,-84.98 486,-70 487.29,-67.62 488.67,-65.2 490.11,-62.8"/>
<polygon fill="none" stroke="#404040" points="490.27,-62.56 490.09,-55.35 496.67,-52.41 496.85,-59.62 490.27,-62.56"/>
<text text-anchor="middle" x="507.5" y="-78.5" font-family="Helvetica,sans-Serif" font-size="10.00"> +thread</text>
</g>
<!-- Node7 -->
<g id="node7" class="node">
<title>Node7</title>
<g id="a_node7"><a xlink:title=" ">
<polygon fill="white" stroke="#666666" points="606,-145.5 506,-145.5 506,-115.5 606,-115.5 606,-145.5"/>
<text text-anchor="middle" x="556" y="-133.5" font-family="Helvetica,sans-Serif" font-size="10.00">{atomic&lt; bool &gt;</text>
<text text-anchor="middle" x="556" y="-122.5" font-family="Helvetica,sans-Serif" font-size="10.00">||}</text>
</a>
</g>
</g>
<!-- Node7&#45;&gt;Node1 -->
<g id="edge6" class="edge">
<title>Node7&#45;&gt;Node1</title>
<path fill="none" stroke="#404040" d="M550.3,-115.25C544.96,-101.89 536.74,-81.36 529.58,-63.45"/>
<polygon fill="none" stroke="#404040" points="529.53,-63.31 523.58,-59.23 525.07,-52.17 531.01,-56.26 529.53,-63.31"/>
<text text-anchor="middle" x="574" y="-84" font-family="Helvetica,sans-Serif" font-size="10.00"> +isMoveable</text>
<text text-anchor="middle" x="574" y="-73" font-family="Helvetica,sans-Serif" font-size="10.00">+running</text>
</g>
<!-- Node8 -->
<g id="node8" class="node">
<title>Node8</title>
<g id="a_node8"><a xlink:title=" ">
<polygon fill="white" stroke="#666666" points="740,-145.5 624,-145.5 624,-115.5 740,-115.5 740,-145.5"/>
<text text-anchor="middle" x="682" y="-133.5" font-family="Helvetica,sans-Serif" font-size="10.00">{queue&lt; Function &gt;</text>
<text text-anchor="middle" x="682" y="-122.5" font-family="Helvetica,sans-Serif" font-size="10.00">||}</text>
</a>
</g>
</g>
<!-- Node8&#45;&gt;Node1 -->
<g id="edge7" class="edge">
<title>Node8&#45;&gt;Node1</title>
<path fill="none" stroke="#404040" d="M667.95,-115.41C654.45,-102.43 633.07,-83.24 612,-70 603.74,-64.81 594.74,-59.93 585.67,-55.45"/>
<polygon fill="none" stroke="#404040" points="585.45,-55.34 578.31,-56.38 574.61,-50.19 581.75,-49.15 585.45,-55.34"/>
<text text-anchor="middle" x="668.5" y="-78.5" font-family="Helvetica,sans-Serif" font-size="10.00"> +functions</text>
</g>
<!-- Node9 -->
<g id="node9" class="node">
<title>Node9</title>
<g id="a_node9"><a xlink:title=" ">
<polygon fill="white" stroke="#666666" points="876,-151 758,-151 758,-110 876,-110 876,-151"/>
<text text-anchor="start" x="766" y="-139" font-family="Helvetica,sans-Serif" font-size="10.00">{queue&lt; std::tuple&lt;</text>
<text text-anchor="middle" x="817" y="-128" font-family="Helvetica,sans-Serif" font-size="10.00"> Args... &gt; &gt;</text>
<text text-anchor="middle" x="817" y="-117" font-family="Helvetica,sans-Serif" font-size="10.00">||}</text>
</a>
</g>
</g>
<!-- Node9&#45;&gt;Node1 -->
<g id="edge8" class="edge">
<title>Node9&#45;&gt;Node1</title>
<path fill="none" stroke="#404040" d="M783.99,-109.79C761.3,-96.94 730.12,-80.65 701,-70 664.25,-56.56 621.83,-46.37 586.79,-39.29"/>
<polygon fill="none" stroke="#404040" points="586.5,-39.23 579.84,-42 574.72,-36.92 581.38,-34.15 586.5,-39.23"/>
<text text-anchor="middle" x="774.5" y="-78.5" font-family="Helvetica,sans-Serif" font-size="10.00"> +argsRef</text>
</g>
<!-- Node10 -->
<g id="node10" class="node">
<title>Node10</title>
<g id="a_node10"><a xlink:title=" ">
<polygon fill="white" stroke="#666666" points="1022,-151 894,-151 894,-110 1022,-110 1022,-151"/>
<text text-anchor="start" x="902" y="-139" font-family="Helvetica,sans-Serif" font-size="10.00">{optional&lt; std::shared</text>
<text text-anchor="middle" x="958" y="-128" font-family="Helvetica,sans-Serif" font-size="10.00">_ptr&lt; Function &gt; &gt;</text>
<text text-anchor="middle" x="958" y="-117" font-family="Helvetica,sans-Serif" font-size="10.00">||}</text>
</a>
</g>
</g>
<!-- Node10&#45;&gt;Node1 -->
<g id="edge9" class="edge">
<title>Node10&#45;&gt;Node1</title>
<path fill="none" stroke="#404040" d="M914.75,-109.97C884.11,-96.86 841.75,-80.2 803,-70 730.54,-50.93 645.45,-39.53 586.64,-33.31"/>
<polygon fill="none" stroke="#404040" points="586.44,-33.29 580.07,-36.65 574.51,-32.06 580.89,-28.69 586.44,-33.29"/>
<text text-anchor="middle" x="902.5" y="-78.5" font-family="Helvetica,sans-Serif" font-size="10.00"> +lastFunction</text>
</g>
<!-- Node11 -->
<g id="node11" class="node">
<title>Node11</title>
<g id="a_node11"><a xlink:title=" ">
<polygon fill="white" stroke="#666666" points="1208,-151 1040,-151 1040,-110 1208,-110 1208,-151"/>
<text text-anchor="start" x="1048" y="-139" font-family="Helvetica,sans-Serif" font-size="10.00">{optional&lt; std::shared</text>
<text text-anchor="middle" x="1124" y="-128" font-family="Helvetica,sans-Serif" font-size="10.00">_ptr&lt; std::tuple&lt; Args... &gt; &gt; &gt;</text>
<text text-anchor="middle" x="1124" y="-117" font-family="Helvetica,sans-Serif" font-size="10.00">||}</text>
</a>
</g>
</g>
<!-- Node11&#45;&gt;Node1 -->
<g id="edge10" class="edge">
<title>Node11&#45;&gt;Node1</title>
<path fill="none" stroke="#404040" d="M1074.19,-109.99C1038.06,-96.63 987.7,-79.65 942,-70 818.84,-43.99 672.28,-33.58 586.83,-29.51"/>
<polygon fill="none" stroke="#404040" points="586.67,-29.5 580.49,-33.23 574.68,-28.96 580.85,-25.23 586.67,-29.5"/>
<text text-anchor="middle" x="1064.5" y="-78.5" font-family="Helvetica,sans-Serif" font-size="10.00"> +lastFunctionArgs</text>
</g>
</g>
</svg>
