<?xml version="1.0" encoding="UTF-8" standalone="no"?>
<!DOCTYPE svg PUBLIC "-//W3C//DTD SVG 1.1//EN"
 "http://www.w3.org/Graphics/SVG/1.1/DTD/svg11.dtd">
<!-- Generated by graphviz version 2.43.0 (0)
 -->
<!-- Title: rethreadme::Thread&lt; Function, Args &gt;::Parameters Pages: 1 -->
<svg width="1216pt" height="170pt"
 viewBox="0.00 0.00 1216.00 170.00" xmlns="http://www.w3.org/2000/svg" xmlns:xlink="http://www.w3.org/1999/xlink">
<g id="graph0" class="graph" transform="scale(1 1) rotate(0) translate(4 166)">
<title>rethreadme::Thread&lt; Function, Args &gt;::Parameters</title>
<!-- Node1 -->
<g id="node1" class="node">
<title>Node1</title>
<g id="a_node1"><a xlink:title=" ">
<polygon fill="#999999" stroke="#666666" points="574.5,-52 455.5,-52 455.5,0 574.5,0 574.5,-52"/>
<text text-anchor="start" x="463.5" y="-40" font-family="Helvetica,sans-Serif" font-size="10.00">{rethreadme::Thread</text>
<text text-anchor="start" x="463.5" y="-29" font-family="Helvetica,sans-Serif" font-size="10.00">&lt; Function, Args &gt;::</text>
<text text-anchor="middle" x="515" y="-18" font-family="Helvetica,sans-Serif" font-size="10.00">Parameters</text>
<text text-anchor="middle" x="515" y="-7" font-family="Helvetica,sans-Serif" font-size="10.00">||}</text>
</a>
</g>
</g>
<!-- Node2 -->
<g id="node2" class="node">
<title>Node2</title>
<g id="a_node2"><a xlink:title=" ">
<polygon fill="white" stroke="#666666" points="54,-156.5 0,-156.5 0,-126.5 54,-126.5 54,-156.5"/>
<text text-anchor="middle" x="27" y="-144.5" font-family="Helvetica,sans-Serif" font-size="10.00">{mutex</text>
<text text-anchor="middle" x="27" y="-133.5" font-family="Helvetica,sans-Serif" font-size="10.00">||}</text>
</a>
</g>
</g>
<!-- Node2&#45;&gt;Node1 -->
<g id="edge1" class="edge">
<title>Node2&#45;&gt;Node1</title>
<path fill="none" stroke="#404040" d="M37.72,-126.26C51.17,-109.58 75.9,-82.64 104,-70 162.8,-43.54 341.66,-33.04 442.99,-29.13"/>
<polygon fill="none" stroke="#404040" points="443.26,-29.12 449.1,-24.9 455.25,-28.67 449.4,-32.89 443.26,-29.12"/>
<text text-anchor="middle" x="119.5" y="-84" font-family="Helvetica,sans-Serif" font-size="10.00"> +mtx</text>
</g>
<!-- Node3 -->
<g id="node3" class="node">
<title>Node3</title>
<g id="a_node3"><a xlink:title=" ">
<polygon fill="white" stroke="#666666" points="197.5,-156.5 72.5,-156.5 72.5,-126.5 197.5,-126.5 197.5,-156.5"/>
<text text-anchor="middle" x="135" y="-144.5" font-family="Helvetica,sans-Serif" font-size="10.00">{counting_semaphore</text>
<text text-anchor="middle" x="135" y="-133.5" font-family="Helvetica,sans-Serif" font-size="10.00">||}</text>
</a>
</g>
</g>
<!-- Node3&#45;&gt;Node1 -->
<g id="edge2" class="edge">
<title>Node3&#45;&gt;Node1</title>
<path fill="none" stroke="#404040" d="M135.12,-126.41C136.09,-110.14 140.34,-83.86 157,-70 199.15,-34.93 351.28,-27.72 443.12,-26.67"/>
<polygon fill="none" stroke="#404040" points="443.38,-26.66 449.35,-22.61 455.38,-26.56 449.42,-30.61 443.38,-26.66"/>
<text text-anchor="middle" x="213" y="-84" font-family="Helvetica,sans-Serif" font-size="10.00"> +functionsSemaphore</text>
</g>
<!-- Node4 -->
<g id="node4" class="node">
<title>Node4</title>
<g id="a_node4"><a xlink:title=" ">
<polygon fill="white" stroke="#666666" points="328.5,-156.5 215.5,-156.5 215.5,-126.5 328.5,-126.5 328.5,-156.5"/>
<text text-anchor="middle" x="272" y="-144.5" font-family="Helvetica,sans-Serif" font-size="10.00">{binary_semaphore</text>
<text text-anchor="middle" x="272" y="-133.5" font-family="Helvetica,sans-Serif" font-size="10.00">||}</text>
</a>
</g>
</g>
<!-- Node4&#45;&gt;Node1 -->
<g id="edge3" class="edge">
<title>Node4&#45;&gt;Node1</title>
<path fill="none" stroke="#404040" d="M270.99,-126.43C270.68,-110.43 272.82,-84.64 288,-70 309.86,-48.91 385.33,-37.72 443.31,-32.1"/>
<polygon fill="none" stroke="#404040" points="443.44,-32.09 449.05,-27.56 455.39,-30.99 449.78,-35.52 443.44,-32.09"/>
<text text-anchor="middle" x="335.5" y="-84" font-family="Helvetica,sans-Serif" font-size="10.00"> +deinitSemaphore</text>
</g>
<!-- Node5 -->
<g id="node5" class="node">
<title>Node5</title>
<g id="a_node5"><a xlink:title=" ">
<polygon fill="white" stroke="#666666" points="415.5,-156.5 346.5,-156.5 346.5,-126.5 415.5,-126.5 415.5,-156.5"/>
<text text-anchor="middle" x="381" y="-144.5" font-family="Helvetica,sans-Serif" font-size="10.00">{once_flag</text>
<text text-anchor="middle" x="381" y="-133.5" font-family="Helvetica,sans-Serif" font-size="10.00">||}</text>
</a>
</g>
</g>
<!-- Node5&#45;&gt;Node1 -->
<g id="edge4" class="edge">
<title>Node5&#45;&gt;Node1</title>
<path fill="none" stroke="#404040" d="M382.31,-126.24C384.48,-110.55 390.17,-85.51 405,-70 415.68,-58.83 429.6,-50.52 443.94,-44.34"/>
<polygon fill="none" stroke="#404040" points="444.29,-44.2 448.42,-38.29 455.46,-39.83 451.33,-45.74 444.29,-44.2"/>
<text text-anchor="middle" x="435.5" y="-84" font-family="Helvetica,sans-Serif" font-size="10.00"> +deinitFlag</text>
</g>
<!-- Node6 -->
<g id="node6" class="node">
<title>Node6</title>
<g id="a_node6"><a xlink:title=" ">
<polygon fill="white" stroke="#666666" points="488,-156.5 434,-156.5 434,-126.5 488,-126.5 488,-156.5"/>
<text text-anchor="middle" x="461" y="-144.5" font-family="Helvetica,sans-Serif" font-size="10.00">{thread</text>
<text text-anchor="middle" x="461" y="-133.5" font-family="Helvetica,sans-Serif" font-size="10.00">||}</text>
</a>
</g>
</g>
<!-- Node6&#45;&gt;Node1 -->
<g id="edge5" class="edge">
<title>Node6&#45;&gt;Node1</title>
<path fill="none" stroke="#404040" d="M463.91,-126.45C467.27,-111.82 473.57,-88.51 483,-70 484.28,-67.48 485.71,-64.96 487.23,-62.46"/>
<polygon fill="none" stroke="#404040" points="487.24,-62.45 487.23,-55.24 493.88,-52.46 493.89,-59.67 487.24,-62.45"/>
<text text-anchor="middle" x="504.5" y="-84" font-family="Helvetica,sans-Serif" font-size="10.00"> +thread</text>
</g>
<!-- Node7 -->
<g id="node7" class="node">
<title>Node7</title>
<g id="a_node7"><a xlink:title=" ">
<polygon fill="white" stroke="#666666" points="606,-156.5 506,-156.5 506,-126.5 606,-126.5 606,-156.5"/>
<text text-anchor="middle" x="556" y="-144.5" font-family="Helvetica,sans-Serif" font-size="10.00">{atomic&lt; bool &gt;</text>
<text text-anchor="middle" x="556" y="-133.5" font-family="Helvetica,sans-Serif" font-size="10.00">||}</text>
</a>
</g>
</g>
<!-- Node7&#45;&gt;Node1 -->
<g id="edge6" class="edge">
<title>Node7&#45;&gt;Node1</title>
<path fill="none" stroke="#404040" d="M550.81,-126.13C545.13,-110.42 535.83,-84.66 528.13,-63.34"/>
<polygon fill="none" stroke="#404040" points="528.12,-63.33 522.32,-59.04 524.05,-52.04 529.85,-56.32 528.12,-63.33"/>
<text text-anchor="middle" x="575" y="-95" font-family="Helvetica,sans-Serif" font-size="10.00"> +inExecution</text>
<text text-anchor="middle" x="575" y="-84" font-family="Helvetica,sans-Serif" font-size="10.00">+isMoveable</text>
<text text-anchor="middle" x="575" y="-73" font-family="Helvetica,sans-Serif" font-size="10.00">+running</text>
</g>
<!-- Node8 -->
<g id="node8" class="node">
<title>Node8</title>
<g id="a_node8"><a xlink:title=" ">
<polygon fill="white" stroke="#666666" points="740,-156.5 624,-156.5 624,-126.5 740,-126.5 740,-156.5"/>
<text text-anchor="middle" x="682" y="-144.5" font-family="Helvetica,sans-Serif" font-size="10.00">{queue&lt; Function &gt;</text>
<text text-anchor="middle" x="682" y="-133.5" font-family="Helvetica,sans-Serif" font-size="10.00">||}</text>
</a>
</g>
</g>
<!-- Node8&#45;&gt;Node1 -->
<g id="edge7" class="edge">
<title>Node8&#45;&gt;Node1</title>
<path fill="none" stroke="#404040" d="M671.08,-126.48C658.46,-111.01 636.39,-86.17 613,-70 604.6,-64.19 595.28,-58.89 585.84,-54.16"/>
<polygon fill="none" stroke="#404040" points="585.56,-54.03 578.42,-55.05 574.73,-48.86 581.87,-47.83 585.56,-54.03"/>
<text text-anchor="middle" x="677.5" y="-84" font-family="Helvetica,sans-Serif" font-size="10.00"> +functions</text>
</g>
<!-- Node9 -->
<g id="node9" class="node">
<title>Node9</title>
<g id="a_node9"><a xlink:title=" ">
<polygon fill="white" stroke="#666666" points="876,-162 758,-162 758,-121 876,-121 876,-162"/>
<text text-anchor="start" x="766" y="-150" font-family="Helvetica,sans-Serif" font-size="10.00">{queue&lt; std::tuple&lt;</text>
<text text-anchor="middle" x="817" y="-139" font-family="Helvetica,sans-Serif" font-size="10.00"> Args... &gt; &gt;</text>
<text text-anchor="middle" x="817" y="-128" font-family="Helvetica,sans-Serif" font-size="10.00">||}</text>
</a>
</g>
</g>
<!-- Node9&#45;&gt;Node1 -->
<g id="edge8" class="edge">
<title>Node9&#45;&gt;Node1</title>
<path fill="none" stroke="#404040" d="M792.97,-120.93C772.19,-104.96 740.74,-82.99 710,-70 670.81,-53.44 624.38,-42.88 586.66,-36.36"/>
<polygon fill="none" stroke="#404040" points="586.58,-36.35 580.01,-39.32 574.74,-34.39 581.32,-31.42 586.58,-36.35"/>
<text text-anchor="middle" x="791.5" y="-84" font-family="Helvetica,sans-Serif" font-size="10.00"> +argsRef</text>
</g>
<!-- Node10 -->
<g id="node10" class="node">
<title>Node10</title>
<g id="a_node10"><a xlink:title=" ">
<polygon fill="white" stroke="#666666" points="1022,-162 894,-162 894,-121 1022,-121 1022,-162"/>
<text text-anchor="start" x="902" y="-150" font-family="Helvetica,sans-Serif" font-size="10.00">{optional&lt; std::shared</text>
<text text-anchor="middle" x="958" y="-139" font-family="Helvetica,sans-Serif" font-size="10.00">_ptr&lt; Function &gt; &gt;</text>
<text text-anchor="middle" x="958" y="-128" font-family="Helvetica,sans-Serif" font-size="10.00">||}</text>
</a>
</g>
</g>
<!-- Node10&#45;&gt;Node1 -->
<g id="edge9" class="edge">
<title>Node10&#45;&gt;Node1</title>
<path fill="none" stroke="#404040" d="M927.22,-120.99C900.06,-104.72 858.86,-82.29 820,-70 742.56,-45.52 649.66,-34.95 586.89,-30.4"/>
<polygon fill="none" stroke="#404040" points="586.73,-30.39 580.47,-33.97 574.76,-29.57 581.02,-25.99 586.73,-30.39"/>
<text text-anchor="middle" x="928.5" y="-84" font-family="Helvetica,sans-Serif" font-size="10.00"> +lastFunction</text>
</g>
<!-- Node11 -->
<g id="node11" class="node">
<title>Node11</title>
<g id="a_node11"><a xlink:title=" ">
<polygon fill="white" stroke="#666666" points="1208,-162 1040,-162 1040,-121 1208,-121 1208,-162"/>
<text text-anchor="start" x="1048" y="-150" font-family="Helvetica,sans-Serif" font-size="10.00">{optional&lt; std::shared</text>
<text text-anchor="middle" x="1124" y="-139" font-family="Helvetica,sans-Serif" font-size="10.00">_ptr&lt; std::tuple&lt; Args... &gt; &gt; &gt;</text>
<text text-anchor="middle" x="1124" y="-128" font-family="Helvetica,sans-Serif" font-size="10.00">||}</text>
</a>
</g>
</g>
<!-- Node11&#45;&gt;Node1 -->
<g id="edge10" class="edge">
<title>Node11&#45;&gt;Node1</title>
<path fill="none" stroke="#404040" d="M1089.6,-120.95C1058.78,-104.42 1011.81,-81.63 968,-70 836.6,-35.11 677.16,-27.7 586.75,-26.59"/>
<polygon fill="none" stroke="#404040" points="586.73,-26.59 580.69,-30.53 574.73,-26.47 580.77,-22.53 586.73,-26.59"/>
<text text-anchor="middle" x="1096.5" y="-84" font-family="Helvetica,sans-Serif" font-size="10.00"> +lastFunctionArgs</text>
</g>
</g>
</svg>
