<?xml version="1.0" encoding="UTF-8" standalone="no"?>
<!DOCTYPE svg PUBLIC "-//W3C//DTD SVG 1.1//EN"
 "http://www.w3.org/Graphics/SVG/1.1/DTD/svg11.dtd">
<!-- Generated by graphviz version 2.43.0 (0)
 -->
<!-- Title: lib/rethreadme/include/rethreadme/Thread.h Pages: 1 -->
<svg width="701pt" height="93pt"
 viewBox="0.00 0.00 700.50 93.00" xmlns="http://www.w3.org/2000/svg" xmlns:xlink="http://www.w3.org/1999/xlink">
<g id="graph0" class="graph" transform="scale(1 1) rotate(0) translate(4 89)">
<title>lib/rethreadme/include/rethreadme/Thread.h</title>
<!-- Node1 -->
<g id="node1" class="node">
<title>Node1</title>
<g id="a_node1"><a xlink:title=" ">
<polygon fill="#999999" stroke="#666666" points="384.5,-85 257.5,-85 257.5,-55 384.5,-55 384.5,-85"/>
<text text-anchor="start" x="265.5" y="-73" font-family="Helvetica,sans-Serif" font-size="10.00">lib/rethreadme/include</text>
<text text-anchor="middle" x="321" y="-62" font-family="Helvetica,sans-Serif" font-size="10.00">/rethreadme/Thread.h</text>
</a>
</g>
</g>
<!-- Node2 -->
<g id="node2" class="node">
<title>Node2</title>
<g id="a_node2"><a xlink:title=" ">
<polygon fill="#e0e0e0" stroke="#999999" points="50,-19 0,-19 0,0 50,0 50,-19"/>
<text text-anchor="middle" x="25" y="-7" font-family="Helvetica,sans-Serif" font-size="10.00">atomic</text>
</a>
</g>
</g>
<!-- Node1&#45;&gt;Node2 -->
<g id="edge1" class="edge">
<title>Node1&#45;&gt;Node2</title>
<path fill="none" stroke="#63b8ff" d="M257.26,-57.87C206.37,-48.75 133.01,-35.08 60.04,-19.13"/>
<polygon fill="#63b8ff" stroke="#63b8ff" points="60.73,-15.7 50.21,-16.97 59.23,-22.54 60.73,-15.7"/>
</g>
<!-- Node3 -->
<g id="node3" class="node">
<title>Node3</title>
<g id="a_node3"><a xlink:title=" ">
<polygon fill="#e0e0e0" stroke="#999999" points="118,-19 68,-19 68,0 118,0 118,-19"/>
<text text-anchor="middle" x="93" y="-7" font-family="Helvetica,sans-Serif" font-size="10.00">chrono</text>
</a>
</g>
</g>
<!-- Node1&#45;&gt;Node3 -->
<g id="edge2" class="edge">
<title>Node1&#45;&gt;Node3</title>
<path fill="none" stroke="#63b8ff" d="M266.39,-54.99C223.4,-43.96 164.78,-28.92 127.91,-19.46"/>
<polygon fill="#63b8ff" stroke="#63b8ff" points="128.68,-16.04 118.12,-16.95 126.94,-22.82 128.68,-16.04"/>
</g>
<!-- Node4 -->
<g id="node4" class="node">
<title>Node4</title>
<g id="a_node4"><a xlink:title=" ">
<polygon fill="#e0e0e0" stroke="#999999" points="168,-19 136,-19 136,0 168,0 168,-19"/>
<text text-anchor="middle" x="152" y="-7" font-family="Helvetica,sans-Serif" font-size="10.00">list</text>
</a>
</g>
</g>
<!-- Node1&#45;&gt;Node4 -->
<g id="edge3" class="edge">
<title>Node1&#45;&gt;Node4</title>
<path fill="none" stroke="#63b8ff" d="M280.52,-54.99C248.66,-43.96 205.2,-28.92 177.88,-19.46"/>
<polygon fill="#63b8ff" stroke="#63b8ff" points="178.85,-16.09 168.25,-16.13 176.56,-22.7 178.85,-16.09"/>
</g>
<!-- Node5 -->
<g id="node5" class="node">
<title>Node5</title>
<g id="a_node5"><a xlink:title=" ">
<polygon fill="#e0e0e0" stroke="#999999" points="244,-19 186,-19 186,0 244,0 244,-19"/>
<text text-anchor="middle" x="215" y="-7" font-family="Helvetica,sans-Serif" font-size="10.00">memory</text>
</a>
</g>
</g>
<!-- Node1&#45;&gt;Node5 -->
<g id="edge4" class="edge">
<title>Node1&#45;&gt;Node5</title>
<path fill="none" stroke="#63b8ff" d="M295.61,-54.99C278.71,-45.66 256.62,-33.47 239.84,-24.21"/>
<polygon fill="#63b8ff" stroke="#63b8ff" points="241.1,-20.91 230.65,-19.14 237.72,-27.04 241.1,-20.91"/>
</g>
<!-- Node6 -->
<g id="node6" class="node">
<title>Node6</title>
<g id="a_node6"><a xlink:title=" ">
<polygon fill="#e0e0e0" stroke="#999999" points="310,-19 262,-19 262,0 310,0 310,-19"/>
<text text-anchor="middle" x="286" y="-7" font-family="Helvetica,sans-Serif" font-size="10.00">mutex</text>
</a>
</g>
</g>
<!-- Node1&#45;&gt;Node6 -->
<g id="edge5" class="edge">
<title>Node1&#45;&gt;Node6</title>
<path fill="none" stroke="#63b8ff" d="M312.53,-54.84C307.71,-46.78 301.63,-36.62 296.5,-28.06"/>
<polygon fill="#63b8ff" stroke="#63b8ff" points="299.38,-26.05 291.24,-19.27 293.38,-29.64 299.38,-26.05"/>
</g>
<!-- Node7 -->
<g id="node7" class="node">
<title>Node7</title>
<g id="a_node7"><a xlink:title=" ">
<polygon fill="#e0e0e0" stroke="#999999" points="384,-19 328,-19 328,0 384,0 384,-19"/>
<text text-anchor="middle" x="356" y="-7" font-family="Helvetica,sans-Serif" font-size="10.00">optional</text>
</a>
</g>
</g>
<!-- Node1&#45;&gt;Node7 -->
<g id="edge6" class="edge">
<title>Node1&#45;&gt;Node7</title>
<path fill="none" stroke="#63b8ff" d="M329.47,-54.84C334.29,-46.78 340.37,-36.62 345.5,-28.06"/>
<polygon fill="#63b8ff" stroke="#63b8ff" points="348.62,-29.64 350.76,-19.27 342.62,-26.05 348.62,-29.64"/>
</g>
<!-- Node8 -->
<g id="node8" class="node">
<title>Node8</title>
<g id="a_node8"><a xlink:title=" ">
<polygon fill="#e0e0e0" stroke="#999999" points="449.5,-19 402.5,-19 402.5,0 449.5,0 449.5,-19"/>
<text text-anchor="middle" x="426" y="-7" font-family="Helvetica,sans-Serif" font-size="10.00">queue</text>
</a>
</g>
</g>
<!-- Node1&#45;&gt;Node8 -->
<g id="edge7" class="edge">
<title>Node1&#45;&gt;Node8</title>
<path fill="none" stroke="#63b8ff" d="M346.15,-54.99C362.89,-45.66 384.77,-33.47 401.39,-24.21"/>
<polygon fill="#63b8ff" stroke="#63b8ff" points="403.46,-27.06 410.49,-19.14 400.05,-20.95 403.46,-27.06"/>
</g>
<!-- Node9 -->
<g id="node9" class="node">
<title>Node9</title>
<g id="a_node9"><a xlink:title=" ">
<polygon fill="#e0e0e0" stroke="#999999" points="538.5,-19 467.5,-19 467.5,0 538.5,0 538.5,-19"/>
<text text-anchor="middle" x="503" y="-7" font-family="Helvetica,sans-Serif" font-size="10.00">semaphore</text>
</a>
</g>
</g>
<!-- Node1&#45;&gt;Node9 -->
<g id="edge8" class="edge">
<title>Node1&#45;&gt;Node9</title>
<path fill="none" stroke="#63b8ff" d="M364.59,-54.99C395.73,-44.98 437.14,-31.67 466.53,-22.22"/>
<polygon fill="#63b8ff" stroke="#63b8ff" points="467.94,-25.45 476.39,-19.05 465.8,-18.78 467.94,-25.45"/>
</g>
<!-- Node10 -->
<g id="node10" class="node">
<title>Node10</title>
<g id="a_node10"><a xlink:title=" ">
<polygon fill="#e0e0e0" stroke="#999999" points="605,-19 557,-19 557,0 605,0 605,-19"/>
<text text-anchor="middle" x="581" y="-7" font-family="Helvetica,sans-Serif" font-size="10.00">thread</text>
</a>
</g>
</g>
<!-- Node1&#45;&gt;Node10 -->
<g id="edge9" class="edge">
<title>Node1&#45;&gt;Node10</title>
<path fill="none" stroke="#63b8ff" d="M384.74,-55.59C427.91,-46.36 486.48,-33.56 546.79,-19.23"/>
<polygon fill="#63b8ff" stroke="#63b8ff" points="547.96,-22.55 556.87,-16.82 546.33,-15.74 547.96,-22.55"/>
</g>
<!-- Node11 -->
<g id="node11" class="node">
<title>Node11</title>
<g id="a_node11"><a xlink:title=" ">
<polygon fill="#e0e0e0" stroke="#999999" points="692.5,-19 623.5,-19 623.5,0 692.5,0 692.5,-19"/>
<text text-anchor="middle" x="658" y="-7" font-family="Helvetica,sans-Serif" font-size="10.00">type_traits</text>
</a>
</g>
</g>
<!-- Node1&#45;&gt;Node11 -->
<g id="edge10" class="edge">
<title>Node1&#45;&gt;Node11</title>
<path fill="none" stroke="#63b8ff" d="M384.51,-58.57C441.7,-49.09 528.33,-34.49 613.58,-19.04"/>
<polygon fill="#63b8ff" stroke="#63b8ff" points="614.21,-22.48 623.43,-17.25 612.96,-15.6 614.21,-22.48"/>
</g>
</g>
</svg>
