<?xml version="1.0" encoding="UTF-8" standalone="no"?>
<!DOCTYPE svg PUBLIC "-//W3C//DTD SVG 1.1//EN"
 "http://www.w3.org/Graphics/SVG/1.1/DTD/svg11.dtd">
<!-- Generated by graphviz version 2.43.0 (0)
 -->
<!-- Title: lib/rethreadme/include/rethreadme/Thread.h Pages: 1 -->
<svg width="779pt" height="93pt"
 viewBox="0.00 0.00 778.50 93.00" xmlns="http://www.w3.org/2000/svg" xmlns:xlink="http://www.w3.org/1999/xlink">
<g id="graph0" class="graph" transform="scale(1 1) rotate(0) translate(4 89)">
<title>lib/rethreadme/include/rethreadme/Thread.h</title>
<!-- Node1 -->
<g id="node1" class="node">
<title>Node1</title>
<g id="a_node1"><a xlink:title=" ">
<polygon fill="#999999" stroke="#666666" points="427.5,-85 300.5,-85 300.5,-55 427.5,-55 427.5,-85"/>
<text text-anchor="start" x="308.5" y="-73" font-family="Helvetica,sans-Serif" font-size="10.00">lib/rethreadme/include</text>
<text text-anchor="middle" x="364" y="-62" font-family="Helvetica,sans-Serif" font-size="10.00">/rethreadme/Thread.h</text>
</a>
</g>
</g>
<!-- Node2 -->
<g id="node2" class="node">
<title>Node2</title>
<g id="a_node2"><a xlink:title=" ">
<polygon fill="#e0e0e0" stroke="#999999" points="50,-19 0,-19 0,0 50,0 50,-19"/>
<text text-anchor="middle" x="25" y="-7" font-family="Helvetica,sans-Serif" font-size="10.00">atomic</text>
</a>
</g>
</g>
<!-- Node1&#45;&gt;Node2 -->
<g id="edge1" class="edge">
<title>Node1&#45;&gt;Node2</title>
<path fill="none" stroke="#63b8ff" d="M300.34,-60.13C240.68,-51.46 148.83,-37.2 60.15,-19.1"/>
<polygon fill="#63b8ff" stroke="#63b8ff" points="60.7,-15.64 50.2,-17.05 59.29,-22.49 60.7,-15.64"/>
</g>
<!-- Node3 -->
<g id="node3" class="node">
<title>Node3</title>
<g id="a_node3"><a xlink:title=" ">
<polygon fill="#e0e0e0" stroke="#999999" points="118,-19 68,-19 68,0 118,0 118,-19"/>
<text text-anchor="middle" x="93" y="-7" font-family="Helvetica,sans-Serif" font-size="10.00">chrono</text>
</a>
</g>
</g>
<!-- Node1&#45;&gt;Node3 -->
<g id="edge2" class="edge">
<title>Node1&#45;&gt;Node3</title>
<path fill="none" stroke="#63b8ff" d="M300.49,-56.27C255.02,-47 192.1,-33.86 128.09,-19.19"/>
<polygon fill="#63b8ff" stroke="#63b8ff" points="128.76,-15.75 118.23,-16.92 127.19,-22.57 128.76,-15.75"/>
</g>
<!-- Node4 -->
<g id="node4" class="node">
<title>Node4</title>
<g id="a_node4"><a xlink:title=" ">
<polygon fill="#e0e0e0" stroke="#999999" points="196,-19 136,-19 136,0 196,0 196,-19"/>
<text text-anchor="middle" x="166" y="-7" font-family="Helvetica,sans-Serif" font-size="10.00">iostream</text>
</a>
</g>
</g>
<!-- Node1&#45;&gt;Node4 -->
<g id="edge3" class="edge">
<title>Node1&#45;&gt;Node4</title>
<path fill="none" stroke="#63b8ff" d="M316.57,-54.99C282.4,-44.89 236.86,-31.44 204.84,-21.98"/>
<polygon fill="#63b8ff" stroke="#63b8ff" points="205.53,-18.53 194.95,-19.05 203.55,-25.24 205.53,-18.53"/>
</g>
<!-- Node5 -->
<g id="node5" class="node">
<title>Node5</title>
<g id="a_node5"><a xlink:title=" ">
<polygon fill="#e0e0e0" stroke="#999999" points="246,-19 214,-19 214,0 246,0 246,-19"/>
<text text-anchor="middle" x="230" y="-7" font-family="Helvetica,sans-Serif" font-size="10.00">list</text>
</a>
</g>
</g>
<!-- Node1&#45;&gt;Node5 -->
<g id="edge4" class="edge">
<title>Node1&#45;&gt;Node5</title>
<path fill="none" stroke="#63b8ff" d="M331.9,-54.99C308.4,-44.73 276.95,-31 255.24,-21.52"/>
<polygon fill="#63b8ff" stroke="#63b8ff" points="256.58,-18.28 246.01,-17.49 253.78,-24.7 256.58,-18.28"/>
</g>
<!-- Node6 -->
<g id="node6" class="node">
<title>Node6</title>
<g id="a_node6"><a xlink:title=" ">
<polygon fill="#e0e0e0" stroke="#999999" points="322,-19 264,-19 264,0 322,0 322,-19"/>
<text text-anchor="middle" x="293" y="-7" font-family="Helvetica,sans-Serif" font-size="10.00">memory</text>
</a>
</g>
</g>
<!-- Node1&#45;&gt;Node6 -->
<g id="edge5" class="edge">
<title>Node1&#45;&gt;Node6</title>
<path fill="none" stroke="#63b8ff" d="M346.81,-54.84C336.19,-46.09 322.56,-34.85 311.67,-25.88"/>
<polygon fill="#63b8ff" stroke="#63b8ff" points="313.58,-22.92 303.64,-19.27 309.13,-28.33 313.58,-22.92"/>
</g>
<!-- Node7 -->
<g id="node7" class="node">
<title>Node7</title>
<g id="a_node7"><a xlink:title=" ">
<polygon fill="#e0e0e0" stroke="#999999" points="388,-19 340,-19 340,0 388,0 388,-19"/>
<text text-anchor="middle" x="364" y="-7" font-family="Helvetica,sans-Serif" font-size="10.00">mutex</text>
</a>
</g>
</g>
<!-- Node1&#45;&gt;Node7 -->
<g id="edge6" class="edge">
<title>Node1&#45;&gt;Node7</title>
<path fill="none" stroke="#63b8ff" d="M364,-54.84C364,-47.21 364,-37.7 364,-29.45"/>
<polygon fill="#63b8ff" stroke="#63b8ff" points="367.5,-29.27 364,-19.27 360.5,-29.27 367.5,-29.27"/>
</g>
<!-- Node8 -->
<g id="node8" class="node">
<title>Node8</title>
<g id="a_node8"><a xlink:title=" ">
<polygon fill="#e0e0e0" stroke="#999999" points="462,-19 406,-19 406,0 462,0 462,-19"/>
<text text-anchor="middle" x="434" y="-7" font-family="Helvetica,sans-Serif" font-size="10.00">optional</text>
</a>
</g>
</g>
<!-- Node1&#45;&gt;Node8 -->
<g id="edge7" class="edge">
<title>Node1&#45;&gt;Node8</title>
<path fill="none" stroke="#63b8ff" d="M380.95,-54.84C391.42,-46.09 404.86,-34.85 415.59,-25.88"/>
<polygon fill="#63b8ff" stroke="#63b8ff" points="418.08,-28.36 423.51,-19.27 413.59,-22.99 418.08,-28.36"/>
</g>
<!-- Node9 -->
<g id="node9" class="node">
<title>Node9</title>
<g id="a_node9"><a xlink:title=" ">
<polygon fill="#e0e0e0" stroke="#999999" points="527.5,-19 480.5,-19 480.5,0 527.5,0 527.5,-19"/>
<text text-anchor="middle" x="504" y="-7" font-family="Helvetica,sans-Serif" font-size="10.00">queue</text>
</a>
</g>
</g>
<!-- Node1&#45;&gt;Node9 -->
<g id="edge8" class="edge">
<title>Node1&#45;&gt;Node9</title>
<path fill="none" stroke="#63b8ff" d="M397.53,-54.99C420.79,-45.27 451.49,-32.44 473.95,-23.06"/>
<polygon fill="#63b8ff" stroke="#63b8ff" points="475.45,-26.22 483.32,-19.14 472.75,-19.77 475.45,-26.22"/>
</g>
<!-- Node10 -->
<g id="node10" class="node">
<title>Node10</title>
<g id="a_node10"><a xlink:title=" ">
<polygon fill="#e0e0e0" stroke="#999999" points="616.5,-19 545.5,-19 545.5,0 616.5,0 616.5,-19"/>
<text text-anchor="middle" x="581" y="-7" font-family="Helvetica,sans-Serif" font-size="10.00">semaphore</text>
</a>
</g>
</g>
<!-- Node1&#45;&gt;Node10 -->
<g id="edge9" class="edge">
<title>Node1&#45;&gt;Node10</title>
<path fill="none" stroke="#63b8ff" d="M415.98,-54.99C453.75,-44.8 504.21,-31.2 539.34,-21.73"/>
<polygon fill="#63b8ff" stroke="#63b8ff" points="540.53,-25.04 549.27,-19.05 538.7,-18.28 540.53,-25.04"/>
</g>
<!-- Node11 -->
<g id="node11" class="node">
<title>Node11</title>
<g id="a_node11"><a xlink:title=" ">
<polygon fill="#e0e0e0" stroke="#999999" points="683,-19 635,-19 635,0 683,0 683,-19"/>
<text text-anchor="middle" x="659" y="-7" font-family="Helvetica,sans-Serif" font-size="10.00">thread</text>
</a>
</g>
</g>
<!-- Node1&#45;&gt;Node11 -->
<g id="edge10" class="edge">
<title>Node1&#45;&gt;Node11</title>
<path fill="none" stroke="#63b8ff" d="M427.76,-58C478.68,-48.95 552.04,-35.31 625.06,-19.1"/>
<polygon fill="#63b8ff" stroke="#63b8ff" points="625.9,-22.5 634.89,-16.9 624.37,-15.67 625.9,-22.5"/>
</g>
<!-- Node12 -->
<g id="node12" class="node">
<title>Node12</title>
<g id="a_node12"><a xlink:title=" ">
<polygon fill="#e0e0e0" stroke="#999999" points="770.5,-19 701.5,-19 701.5,0 770.5,0 770.5,-19"/>
<text text-anchor="middle" x="736" y="-7" font-family="Helvetica,sans-Serif" font-size="10.00">type_traits</text>
</a>
</g>
</g>
<!-- Node1&#45;&gt;Node12 -->
<g id="edge11" class="edge">
<title>Node1&#45;&gt;Node12</title>
<path fill="none" stroke="#63b8ff" d="M427.61,-60.06C491.59,-50.9 593.3,-35.87 691.35,-19.05"/>
<polygon fill="#63b8ff" stroke="#63b8ff" points="692.18,-22.46 701.44,-17.31 690.99,-15.56 692.18,-22.46"/>
</g>
</g>
</svg>
