<?xml version="1.0" encoding="UTF-8" standalone="no"?>
<!DOCTYPE svg PUBLIC "-//W3C//DTD SVG 1.1//EN"
 "http://www.w3.org/Graphics/SVG/1.1/DTD/svg11.dtd">
<!-- Generated by graphviz version 2.43.0 (0)
 -->
<!-- Title: lib/rethreadme/include/rethreadme/Thread.h Pages: 1 -->
<svg width="625pt" height="93pt"
 viewBox="0.00 0.00 624.50 93.00" xmlns="http://www.w3.org/2000/svg" xmlns:xlink="http://www.w3.org/1999/xlink">
<g id="graph0" class="graph" transform="scale(1 1) rotate(0) translate(4 89)">
<title>lib/rethreadme/include/rethreadme/Thread.h</title>
<!-- Node1 -->
<g id="node1" class="node">
<title>Node1</title>
<g id="a_node1"><a xlink:title=" ">
<polygon fill="#999999" stroke="#666666" points="343.5,-85 216.5,-85 216.5,-55 343.5,-55 343.5,-85"/>
<text text-anchor="start" x="224.5" y="-73" font-family="Helvetica,sans-Serif" font-size="10.00">lib/rethreadme/include</text>
<text text-anchor="middle" x="280" y="-62" font-family="Helvetica,sans-Serif" font-size="10.00">/rethreadme/Thread.h</text>
</a>
</g>
</g>
<!-- Node2 -->
<g id="node2" class="node">
<title>Node2</title>
<g id="a_node2"><a xlink:title=" ">
<polygon fill="#e0e0e0" stroke="#999999" points="50,-19 0,-19 0,0 50,0 50,-19"/>
<text text-anchor="middle" x="25" y="-7" font-family="Helvetica,sans-Serif" font-size="10.00">atomic</text>
</a>
</g>
</g>
<!-- Node1&#45;&gt;Node2 -->
<g id="edge1" class="edge">
<title>Node1&#45;&gt;Node2</title>
<path fill="none" stroke="#63b8ff" d="M216.08,-54.94C174.32,-45.66 118.34,-33.04 60.32,-19.28"/>
<polygon fill="#63b8ff" stroke="#63b8ff" points="60.77,-15.79 50.24,-16.88 59.15,-22.6 60.77,-15.79"/>
</g>
<!-- Node3 -->
<g id="node3" class="node">
<title>Node3</title>
<g id="a_node3"><a xlink:title=" ">
<polygon fill="#e0e0e0" stroke="#999999" points="118,-19 68,-19 68,0 118,0 118,-19"/>
<text text-anchor="middle" x="93" y="-7" font-family="Helvetica,sans-Serif" font-size="10.00">chrono</text>
</a>
</g>
</g>
<!-- Node1&#45;&gt;Node3 -->
<g id="edge2" class="edge">
<title>Node1&#45;&gt;Node3</title>
<path fill="none" stroke="#63b8ff" d="M235.21,-54.99C202.3,-44.69 158.22,-30.9 127.91,-21.42"/>
<polygon fill="#63b8ff" stroke="#63b8ff" points="128.78,-18.03 118.19,-18.38 126.69,-24.71 128.78,-18.03"/>
</g>
<!-- Node4 -->
<g id="node4" class="node">
<title>Node4</title>
<g id="a_node4"><a xlink:title=" ">
<polygon fill="#e0e0e0" stroke="#999999" points="168,-19 136,-19 136,0 168,0 168,-19"/>
<text text-anchor="middle" x="152" y="-7" font-family="Helvetica,sans-Serif" font-size="10.00">list</text>
</a>
</g>
</g>
<!-- Node1&#45;&gt;Node4 -->
<g id="edge3" class="edge">
<title>Node1&#45;&gt;Node4</title>
<path fill="none" stroke="#63b8ff" d="M249.34,-54.99C227.38,-44.95 198.14,-31.59 177.46,-22.14"/>
<polygon fill="#63b8ff" stroke="#63b8ff" points="178.9,-18.94 168.35,-17.97 175.99,-25.31 178.9,-18.94"/>
</g>
<!-- Node5 -->
<g id="node5" class="node">
<title>Node5</title>
<g id="a_node5"><a xlink:title=" ">
<polygon fill="#e0e0e0" stroke="#999999" points="234,-19 186,-19 186,0 234,0 234,-19"/>
<text text-anchor="middle" x="210" y="-7" font-family="Helvetica,sans-Serif" font-size="10.00">mutex</text>
</a>
</g>
</g>
<!-- Node1&#45;&gt;Node5 -->
<g id="edge4" class="edge">
<title>Node1&#45;&gt;Node5</title>
<path fill="none" stroke="#63b8ff" d="M263.05,-54.84C252.58,-46.09 239.14,-34.85 228.41,-25.88"/>
<polygon fill="#63b8ff" stroke="#63b8ff" points="230.41,-22.99 220.49,-19.27 225.92,-28.36 230.41,-22.99"/>
</g>
<!-- Node6 -->
<g id="node6" class="node">
<title>Node6</title>
<g id="a_node6"><a xlink:title=" ">
<polygon fill="#e0e0e0" stroke="#999999" points="308,-19 252,-19 252,0 308,0 308,-19"/>
<text text-anchor="middle" x="280" y="-7" font-family="Helvetica,sans-Serif" font-size="10.00">optional</text>
</a>
</g>
</g>
<!-- Node1&#45;&gt;Node6 -->
<g id="edge5" class="edge">
<title>Node1&#45;&gt;Node6</title>
<path fill="none" stroke="#63b8ff" d="M280,-54.84C280,-47.21 280,-37.7 280,-29.45"/>
<polygon fill="#63b8ff" stroke="#63b8ff" points="283.5,-29.27 280,-19.27 276.5,-29.27 283.5,-29.27"/>
</g>
<!-- Node7 -->
<g id="node7" class="node">
<title>Node7</title>
<g id="a_node7"><a xlink:title=" ">
<polygon fill="#e0e0e0" stroke="#999999" points="373.5,-19 326.5,-19 326.5,0 373.5,0 373.5,-19"/>
<text text-anchor="middle" x="350" y="-7" font-family="Helvetica,sans-Serif" font-size="10.00">queue</text>
</a>
</g>
</g>
<!-- Node1&#45;&gt;Node7 -->
<g id="edge6" class="edge">
<title>Node1&#45;&gt;Node7</title>
<path fill="none" stroke="#63b8ff" d="M296.95,-54.84C307.42,-46.09 320.86,-34.85 331.59,-25.88"/>
<polygon fill="#63b8ff" stroke="#63b8ff" points="334.08,-28.36 339.51,-19.27 329.59,-22.99 334.08,-28.36"/>
</g>
<!-- Node8 -->
<g id="node8" class="node">
<title>Node8</title>
<g id="a_node8"><a xlink:title=" ">
<polygon fill="#e0e0e0" stroke="#999999" points="462.5,-19 391.5,-19 391.5,0 462.5,0 462.5,-19"/>
<text text-anchor="middle" x="427" y="-7" font-family="Helvetica,sans-Serif" font-size="10.00">semaphore</text>
</a>
</g>
</g>
<!-- Node1&#45;&gt;Node8 -->
<g id="edge7" class="edge">
<title>Node1&#45;&gt;Node8</title>
<path fill="none" stroke="#63b8ff" d="M315.21,-54.99C339.74,-45.23 372.15,-32.33 395.76,-22.93"/>
<polygon fill="#63b8ff" stroke="#63b8ff" points="397.29,-26.09 405.29,-19.14 394.71,-19.58 397.29,-26.09"/>
</g>
<!-- Node9 -->
<g id="node9" class="node">
<title>Node9</title>
<g id="a_node9"><a xlink:title=" ">
<polygon fill="#e0e0e0" stroke="#999999" points="529,-19 481,-19 481,0 529,0 529,-19"/>
<text text-anchor="middle" x="505" y="-7" font-family="Helvetica,sans-Serif" font-size="10.00">thread</text>
</a>
</g>
</g>
<!-- Node1&#45;&gt;Node9 -->
<g id="edge8" class="edge">
<title>Node1&#45;&gt;Node9</title>
<path fill="none" stroke="#63b8ff" d="M333.89,-54.99C376.37,-43.94 434.32,-28.88 470.69,-19.42"/>
<polygon fill="#63b8ff" stroke="#63b8ff" points="472,-22.7 480.8,-16.79 470.24,-15.92 472,-22.7"/>
</g>
<!-- Node10 -->
<g id="node10" class="node">
<title>Node10</title>
<g id="a_node10"><a xlink:title=" ">
<polygon fill="#e0e0e0" stroke="#999999" points="616.5,-19 547.5,-19 547.5,0 616.5,0 616.5,-19"/>
<text text-anchor="middle" x="582" y="-7" font-family="Helvetica,sans-Serif" font-size="10.00">type_traits</text>
</a>
</g>
</g>
<!-- Node1&#45;&gt;Node10 -->
<g id="edge9" class="edge">
<title>Node1&#45;&gt;Node10</title>
<path fill="none" stroke="#63b8ff" d="M343.68,-56.67C401.64,-45.44 485.75,-29.14 537,-19.22"/>
<polygon fill="#63b8ff" stroke="#63b8ff" points="537.95,-22.6 547.1,-17.26 536.62,-15.73 537.95,-22.6"/>
</g>
</g>
</svg>
